<?xml version="1.0" encoding="UTF-8"?>
<svg width="32px" height="32px" viewBox="0 0 32 32" version="1.1" xmlns="http://www.w3.org/2000/svg" xmlns:xlink="http://www.w3.org/1999/xlink">
    <title>icon-adjuntando1</title>
    <g id="icon-adjuntando1" stroke="none" stroke-width="1" fill="none" fill-rule="evenodd" opacity="0.3">
        <g id="1-Line/SEO/loading">
            <g id="1-Line/UI-Essential/loading">
                <g id="Page-1">
                    <polygon id="Fill-1" points="0 32 32 32 32 0 0 0"></polygon>
                    <g id="Group-16" transform="translate(1.000000, 1.000000)" fill="#364F6B">
                        <path d="M15,2 C7.815,2 2,7.814 2,15 C2,22.177 7.813,28 15,28 C22.185,28 28,22.186 28,15 C28,7.816 22.187,2 15,2 M15,30 C6.724,30 0,23.292 0,15 C0,6.711 6.708,0 15,0 C23.289,0 30,6.708 30,15 C30,23.289 23.292,30 15,30" id="Fill-2"></path>
                        <path d="M15,8 C14.447,8 14,7.552 14,7 L14,5 C14,4.448 14.447,4 15,4 C15.553,4 16,4.448 16,5 L16,7 C16,7.552 15.553,8 15,8" id="Fill-4"></path>
                        <path d="M19.293,10.707 C18.902,10.316 18.902,9.684 19.293,9.293 L21.293,7.293 C21.684,6.902 22.316,6.902 22.707,7.293 C23.098,7.684 23.098,8.316 22.707,8.707 L20.707,10.707 C20.316,11.098 19.684,11.098 19.293,10.707" id="Fill-6"></path>
                        <path d="M21.293,22.707 L19.293,20.707 C18.902,20.316 18.902,19.684 19.293,19.293 C19.684,18.902 20.316,18.902 20.707,19.293 L22.707,21.293 C23.098,21.684 23.098,22.316 22.707,22.707 C22.316,23.098 21.684,23.098 21.293,22.707" id="Fill-8"></path>
                        <path d="M7.293,22.707 C6.902,22.316 6.902,21.684 7.293,21.293 L9.293,19.293 C9.684,18.902 10.316,18.902 10.707,19.293 C11.098,19.684 11.098,20.316 10.707,20.707 L8.707,22.707 C8.316,23.098 7.684,23.098 7.293,22.707" id="Fill-10"></path>
                        <path d="M25,16 L23,16 C22.447,16 22,15.552 22,15 C22,14.448 22.447,14 23,14 L25,14 C25.553,14 26,14.448 26,15 C26,15.552 25.553,16 25,16" id="Fill-12"></path>
                        <path d="M15,26 C14.447,26 14,25.552 14,25 L14,23 C14,22.448 14.447,22 15,22 C15.553,22 16,22.448 16,23 L16,25 C16,25.552 15.553,26 15,26" id="Fill-14"></path>
                    </g>
                </g>
            </g>
        </g>
    </g>
</svg>